<svg xmlns="http://www.w3.org/2000/svg" width="512" height="512" viewBox="0 0 24 24">
  <rect width="24" height="24" fill="#1f2937" rx="4"/>
  <path d="M12 4a3.5 3.5 0 0 0-3.5 3.5c0 1.1.5 2.1 1.3 2.8A3.5 3.5 0 0 0 4 12a3.5 3.5 0 0 0 5.7 2.7c-.2.5-.2 1-.2 1.3 0 1.9 1.6 3.5 3.5 3.5s3.5-1.6 3.5-3.5c0-.3 0-.8-.2-1.3A3.5 3.5 0 0 0 20 12a3.5 3.5 0 0 0-5.8-2.7c.8-.7 1.3-1.7 1.3-2.8A3.5 3.5 0 0 0 12 4z" fill="#4ade80"/>
  <path d="M12 16v5" stroke="#4ade80" stroke-width="2" stroke-linecap="round"/>
</svg>
